<?xml version="1.0" encoding="UTF-8" standalone="no"?>
<svg width="48px" height="36px" viewBox="0 0 48 36" version="1.1" xmlns="http://www.w3.org/2000/svg" xmlns:xlink="http://www.w3.org/1999/xlink">
    <!-- Generator: Sketch 48 (47235) - http://www.bohemiancoding.com/sketch -->
    <title>键盘 撤销</title>
    <desc>Created with Sketch.</desc>
    <defs></defs>
    <g id="Page-1" stroke="none" stroke-width="1" fill="none" fill-rule="evenodd">
        <g id="键盘-撤销" fill="#FFFFFF">
            <path d="M44,0 L14.2,0 C12.8,0 11.6,0.6 10.8,1.8 L0,18 L10.8,34.2 C11.6,35.2 12.8,36 14.2,36 L44,36 C46.2,36 48,34.2 48,32 L48,4 C48,1.8 46.2,0 44,0 L44,0 Z M38,25.2 L35.2,28 L28,20.8 L20.8,28 L18,25.2 L25.2,18 L18,10.8 L20.8,8 L28,15.2 L35.2,8 L38,10.8 L30.8,18 L38,25.2 L38,25.2 Z" id="delete"></path>
        </g>
    </g>
</svg>